# xmcd CD database file
#
# Track frame offsets:
#	150
#	119537
#	157337
#	182275
#	223487
#	294412
#
# Disc length: 4353 seconds
#
# Revision: 0
# Processed by: cddbd v1.4PL0 Copyright (c) Steve Scherf et al.
# Submitted via: CDex 1.50
#
DISCID=5d10ff06
DTITLE=Maneri, Morris, Maneri - Out Right Now
DYEAR=2001
DGENRE=Jazz
TTITLE0=Some And Then Some
TTITLE1=Spoken Things
TTITLE2=Small Steps In The Right Direction
TTITLE3=Roots Go Deep
TTITLE4=Out Right Now
TTITLE5=Blue Current
EXTD=YEAR: 2001
EXTT0=
EXTT1=
EXTT2=
EXTT3=
EXTT4=
EXTT5=
PLAYORDER=
